<mxfile host="65bd71144e">
    <diagram id="hV0SHfoGrisFIh4XmOlX" name="Architecture">
        <mxGraphModel dx="977" dy="696" grid="1" gridSize="10" guides="1" tooltips="1" connect="1" arrows="1" fold="1" page="1" pageScale="1" pageWidth="827" pageHeight="1169" math="0" shadow="0">
            <root>
                <mxCell id="0"/>
                <mxCell id="1" parent="0"/>
                <mxCell id="85" value="Interface" style="labelPosition=center;verticalLabelPosition=middle;align=left;verticalAlign=top;spacingTop=0;spacingLeft=0;spacingRight=0;spacing=5;" parent="1" vertex="1">
                    <mxGeometry x="160" y="120" width="240" height="160" as="geometry"/>
                </mxCell>
                <mxCell id="149" value="Data" style="labelPosition=center;verticalLabelPosition=middle;align=left;verticalAlign=top;spacingTop=0;spacingLeft=0;spacingRight=0;spacing=5;" vertex="1" parent="1">
                    <mxGeometry x="480" y="120" width="240" height="160" as="geometry"/>
                </mxCell>
                <mxCell id="150" value="Function" style="labelPosition=center;verticalLabelPosition=middle;align=left;verticalAlign=top;spacingTop=0;spacingLeft=0;spacingRight=0;spacing=5;" vertex="1" parent="1">
                    <mxGeometry x="480" y="320" width="240" height="160" as="geometry"/>
                </mxCell>
                <mxCell id="165" value="Presentation" style="labelPosition=center;verticalLabelPosition=middle;align=left;verticalAlign=top;spacingTop=0;spacingLeft=0;spacingRight=0;spacing=5;" vertex="1" parent="1">
                    <mxGeometry x="160" y="320" width="240" height="160" as="geometry"/>
                </mxCell>
                <mxCell id="26" style="edgeStyle=none;html=1;exitX=0;exitY=0;exitDx=0;exitDy=0;entryX=0;entryY=0;entryDx=0;entryDy=0;" parent="1" source="159" target="177" edge="1">
                    <mxGeometry relative="1" as="geometry">
                        <mxPoint x="440" y="330" as="targetPoint"/>
                        <mxPoint x="340" y="220" as="sourcePoint"/>
                    </mxGeometry>
                </mxCell>
                <mxCell id="NXFUlHPYo5hBLQqX9jPC-100" style="edgeStyle=none;html=1;exitX=0;exitY=0;exitDx=0;exitDy=0;entryX=0;entryY=0;entryDx=0;entryDy=0;" parent="1" source="163" target="164" edge="1">
                    <mxGeometry relative="1" as="geometry">
                        <mxPoint x="430" y="120" as="targetPoint"/>
                        <mxPoint x="520" y="390" as="sourcePoint"/>
                    </mxGeometry>
                </mxCell>
                <mxCell id="NXFUlHPYo5hBLQqX9jPC-102" style="edgeStyle=none;html=1;exitX=0.5;exitY=1;exitDx=0;exitDy=0;" parent="1" source="NXFUlHPYo5hBLQqX9jPC-101" target="159" edge="1">
                    <mxGeometry relative="1" as="geometry">
                        <mxPoint x="600" y="859" as="targetPoint"/>
                        <mxPoint x="611" y="730" as="sourcePoint"/>
                    </mxGeometry>
                </mxCell>
                <mxCell id="NXFUlHPYo5hBLQqX9jPC-109" style="edgeStyle=none;html=1;entryX=0;entryY=0;entryDx=0;entryDy=0;exitX=0;exitY=0;exitDx=0;exitDy=0;" parent="1" source="158" target="159" edge="1">
                    <mxGeometry relative="1" as="geometry">
                        <mxPoint x="530" y="647" as="targetPoint"/>
                        <mxPoint x="592" y="738.9999999999999" as="sourcePoint"/>
                    </mxGeometry>
                </mxCell>
                <mxCell id="147" value="メモリ解放" style="rounded=0;whiteSpace=wrap;html=1;fillColor=none;strokeColor=none;fontSize=10;fontColor=#FF0000;" parent="1" vertex="1">
                    <mxGeometry x="3" y="667" width="60" height="22" as="geometry"/>
                </mxCell>
                <mxCell id="159" value="Terminal" style="rounded=0;whiteSpace=wrap;html=1;fillColor=#3F7F3F;fontColor=#ffffff;strokeColor=#3700CC;" vertex="1" parent="1">
                    <mxGeometry x="200" y="180" width="60" height="40" as="geometry"/>
                </mxCell>
                <mxCell id="172" style="edgeStyle=none;html=1;exitX=0;exitY=0;exitDx=0;exitDy=0;entryX=0;entryY=0;entryDx=0;entryDy=0;" edge="1" parent="1" source="168" target="174">
                    <mxGeometry relative="1" as="geometry"/>
                </mxCell>
                <mxCell id="170" style="edgeStyle=none;html=1;exitX=0;exitY=0;exitDx=0;exitDy=0;entryX=0;entryY=0;entryDx=0;entryDy=0;" edge="1" parent="1" source="164" target="169">
                    <mxGeometry relative="1" as="geometry">
                        <mxPoint x="440" y="130" as="targetPoint"/>
                        <mxPoint x="340" y="210" as="sourcePoint"/>
                    </mxGeometry>
                </mxCell>
                <mxCell id="176" style="edgeStyle=none;html=1;exitX=0;exitY=0;exitDx=0;exitDy=0;entryX=0;entryY=0;entryDx=0;entryDy=0;" edge="1" parent="1" source="179" target="171">
                    <mxGeometry relative="1" as="geometry">
                        <mxPoint x="500" y="410" as="sourcePoint"/>
                        <mxPoint x="610" y="210" as="targetPoint"/>
                    </mxGeometry>
                </mxCell>
                <mxCell id="180" style="edgeStyle=none;html=1;exitX=0;exitY=0;exitDx=0;exitDy=0;entryX=0;entryY=0;entryDx=0;entryDy=0;" edge="1" parent="1" source="179" target="173">
                    <mxGeometry relative="1" as="geometry">
                        <mxPoint x="500" y="410" as="sourcePoint"/>
                        <mxPoint x="610" y="210" as="targetPoint"/>
                    </mxGeometry>
                </mxCell>
                <mxCell id="181" style="edgeStyle=none;html=1;exitX=0;exitY=0;exitDx=0;exitDy=0;entryX=0;entryY=0;entryDx=0;entryDy=0;" edge="1" parent="1" source="179" target="174">
                    <mxGeometry relative="1" as="geometry">
                        <mxPoint x="500" y="410" as="sourcePoint"/>
                        <mxPoint x="610" y="210" as="targetPoint"/>
                    </mxGeometry>
                </mxCell>
                <mxCell id="182" style="edgeStyle=none;html=1;exitX=0;exitY=0;exitDx=0;exitDy=0;entryX=0;entryY=0;entryDx=0;entryDy=0;" edge="1" parent="1" source="177" target="167">
                    <mxGeometry relative="1" as="geometry">
                        <mxPoint x="270" y="430" as="targetPoint"/>
                        <mxPoint x="240" y="210" as="sourcePoint"/>
                    </mxGeometry>
                </mxCell>
                <mxCell id="183" style="edgeStyle=none;html=1;exitX=0;exitY=0;exitDx=0;exitDy=0;" edge="1" parent="1" source="178" target="184">
                    <mxGeometry relative="1" as="geometry">
                        <mxPoint x="460" y="390" as="targetPoint"/>
                        <mxPoint x="270" y="430" as="sourcePoint"/>
                    </mxGeometry>
                </mxCell>
                <mxCell id="185" style="edgeStyle=none;html=1;exitX=0;exitY=0;exitDx=0;exitDy=0;entryX=0;entryY=0;entryDx=0;entryDy=0;" edge="1" parent="1" source="171" target="166">
                    <mxGeometry relative="1" as="geometry">
                        <mxPoint x="670" y="30" as="targetPoint"/>
                        <mxPoint x="610" y="120" as="sourcePoint"/>
                    </mxGeometry>
                </mxCell>
                <mxCell id="186" style="edgeStyle=none;html=1;exitX=0;exitY=0;exitDx=0;exitDy=0;entryX=0;entryY=0;entryDx=0;entryDy=0;" edge="1" parent="1" source="184" target="163">
                    <mxGeometry relative="1" as="geometry">
                        <mxPoint x="340" y="260" as="targetPoint"/>
                        <mxPoint x="360" y="370" as="sourcePoint"/>
                    </mxGeometry>
                </mxCell>
                <mxCell id="187" style="edgeStyle=none;html=1;exitX=0;exitY=0;exitDx=0;exitDy=0;entryX=0;entryY=0;entryDx=0;entryDy=0;" edge="1" parent="1" source="173" target="166">
                    <mxGeometry relative="1" as="geometry">
                        <mxPoint x="560" y="70" as="targetPoint"/>
                        <mxPoint x="530" y="210" as="sourcePoint"/>
                    </mxGeometry>
                </mxCell>
                <mxCell id="188" style="edgeStyle=none;html=1;exitX=0;exitY=0;exitDx=0;exitDy=0;entryX=0;entryY=0;entryDx=0;entryDy=0;" edge="1" parent="1" source="174" target="166">
                    <mxGeometry relative="1" as="geometry">
                        <mxPoint x="620" y="60" as="targetPoint"/>
                        <mxPoint x="610" y="210" as="sourcePoint"/>
                    </mxGeometry>
                </mxCell>
                <mxCell id="NXFUlHPYo5hBLQqX9jPC-101" value="Display" style="rounded=0;whiteSpace=wrap;html=1;fillColor=#3F7F3F;fontColor=#ffffff;strokeColor=#3700CC;" parent="1" vertex="1">
                    <mxGeometry x="240" y="40" width="60" height="40" as="geometry"/>
                </mxCell>
                <mxCell id="158" value="Keyboard" style="rounded=0;whiteSpace=wrap;html=1;fillColor=#3F7F3F;fontColor=#ffffff;strokeColor=#3700CC;" vertex="1" parent="1">
                    <mxGeometry x="160" y="40" width="60" height="40" as="geometry"/>
                </mxCell>
                <mxCell id="169" value="Client" style="rounded=0;whiteSpace=wrap;html=1;fillColor=#3F7F3F;fontColor=#ffffff;strokeColor=#3700CC;" vertex="1" parent="1">
                    <mxGeometry x="360" y="40" width="60" height="40" as="geometry"/>
                </mxCell>
                <mxCell id="164" value="NW&lt;br&gt;adapter" style="rounded=0;whiteSpace=wrap;html=1;fillColor=#3F7F3F;fontColor=#ffffff;strokeColor=#3700CC;" vertex="1" parent="1">
                    <mxGeometry x="300" y="130" width="60" height="40" as="geometry"/>
                </mxCell>
                <mxCell id="163" value="TCP/IP&lt;br&gt;socket" style="rounded=0;whiteSpace=wrap;html=1;fillColor=#3F7F3F;fontColor=#ffffff;strokeColor=#3700CC;" vertex="1" parent="1">
                    <mxGeometry x="300" y="180" width="60" height="40" as="geometry"/>
                </mxCell>
                <mxCell id="184" value="Multiplex&lt;br&gt;I/O" style="rounded=0;whiteSpace=wrap;html=1;fillColor=#3F7F3F;fontColor=#ffffff;strokeColor=#3700CC;" vertex="1" parent="1">
                    <mxGeometry x="300" y="230" width="60" height="40" as="geometry"/>
                </mxCell>
                <mxCell id="177" value="Formatting" style="rounded=0;whiteSpace=wrap;html=1;fillColor=#3F7F3F;fontColor=#ffffff;strokeColor=#3700CC;" vertex="1" parent="1">
                    <mxGeometry x="230" y="400" width="60" height="40" as="geometry"/>
                </mxCell>
                <mxCell id="166" value="File" style="rounded=0;whiteSpace=wrap;html=1;fillColor=#3F7F3F;fontColor=#ffffff;strokeColor=#3700CC;" vertex="1" parent="1">
                    <mxGeometry x="520" y="40" width="60" height="40" as="geometry"/>
                </mxCell>
                <mxCell id="193" style="edgeStyle=none;html=1;entryX=0;entryY=0;entryDx=0;entryDy=0;exitX=0;exitY=0;exitDx=0;exitDy=0;" edge="1" parent="1" source="189" target="171">
                    <mxGeometry relative="1" as="geometry">
                        <mxPoint x="540" y="440" as="targetPoint"/>
                        <mxPoint x="440" y="280" as="sourcePoint"/>
                    </mxGeometry>
                </mxCell>
                <mxCell id="194" style="edgeStyle=none;html=1;exitX=0;exitY=0;exitDx=0;exitDy=0;entryX=0;entryY=0;entryDx=0;entryDy=0;" edge="1" parent="1" source="190" target="179">
                    <mxGeometry relative="1" as="geometry">
                        <mxPoint x="540" y="440" as="targetPoint"/>
                        <mxPoint x="360" y="370" as="sourcePoint"/>
                    </mxGeometry>
                </mxCell>
                <mxCell id="195" style="edgeStyle=none;html=1;exitX=0;exitY=0;exitDx=0;exitDy=0;" edge="1" parent="1" source="167">
                    <mxGeometry relative="1" as="geometry">
                        <mxPoint x="530" y="430" as="targetPoint"/>
                        <mxPoint x="360" y="370" as="sourcePoint"/>
                    </mxGeometry>
                </mxCell>
                <mxCell id="196" style="edgeStyle=none;html=1;exitX=0;exitY=0;exitDx=0;exitDy=0;entryX=0;entryY=0;entryDx=0;entryDy=0;" edge="1" parent="1" source="190" target="189">
                    <mxGeometry relative="1" as="geometry">
                        <mxPoint x="450" y="350" as="targetPoint"/>
                        <mxPoint x="540" y="380" as="sourcePoint"/>
                    </mxGeometry>
                </mxCell>
                <mxCell id="197" style="edgeStyle=none;html=1;exitX=0;exitY=0;exitDx=0;exitDy=0;entryX=0;entryY=0;entryDx=0;entryDy=0;" edge="1" parent="1" source="190" target="178">
                    <mxGeometry relative="1" as="geometry">
                        <mxPoint x="540" y="440" as="targetPoint"/>
                        <mxPoint x="360" y="430" as="sourcePoint"/>
                    </mxGeometry>
                </mxCell>
                <mxCell id="179" value="CRUD" style="rounded=0;whiteSpace=wrap;html=1;fillColor=#3F7F3F;fontColor=#ffffff;strokeColor=#3700CC;" vertex="1" parent="1">
                    <mxGeometry x="590" y="350" width="60" height="40" as="geometry"/>
                </mxCell>
                <mxCell id="189" value="Compose" style="rounded=0;whiteSpace=wrap;html=1;fillColor=#3F7F3F;fontColor=#ffffff;strokeColor=#3700CC;" vertex="1" parent="1">
                    <mxGeometry x="500" y="350" width="60" height="40" as="geometry"/>
                </mxCell>
                <mxCell id="168" value="Auth" style="rounded=0;whiteSpace=wrap;html=1;fillColor=#3F7F3F;fontColor=#ffffff;strokeColor=#3700CC;" vertex="1" parent="1">
                    <mxGeometry x="650" y="410" width="60" height="40" as="geometry"/>
                </mxCell>
                <mxCell id="190" value="Command" style="rounded=0;whiteSpace=wrap;html=1;fillColor=#3F7F3F;fontColor=#ffffff;strokeColor=#3700CC;" vertex="1" parent="1">
                    <mxGeometry x="500" y="410" width="60" height="40" as="geometry"/>
                </mxCell>
                <mxCell id="167" value="Listing" style="rounded=0;whiteSpace=wrap;html=1;fillColor=#3F7F3F;fontColor=#ffffff;strokeColor=#3700CC;" vertex="1" parent="1">
                    <mxGeometry x="320" y="400" width="60" height="40" as="geometry"/>
                </mxCell>
                <mxCell id="178" value="Protocol" style="rounded=0;whiteSpace=wrap;html=1;fillColor=#3F7F3F;fontColor=#ffffff;strokeColor=#3700CC;" vertex="1" parent="1">
                    <mxGeometry x="320" y="340" width="60" height="40" as="geometry"/>
                </mxCell>
                <mxCell id="171" value="Message" style="rounded=0;whiteSpace=wrap;html=1;fillColor=#3F7F3F;fontColor=#ffffff;strokeColor=#3700CC;" vertex="1" parent="1">
                    <mxGeometry x="490" y="180" width="60" height="40" as="geometry"/>
                </mxCell>
                <mxCell id="173" value="Channel" style="rounded=0;whiteSpace=wrap;html=1;fillColor=#3F7F3F;fontColor=#ffffff;strokeColor=#3700CC;" vertex="1" parent="1">
                    <mxGeometry x="570" y="180" width="60" height="40" as="geometry"/>
                </mxCell>
                <mxCell id="174" value="User" style="rounded=0;whiteSpace=wrap;html=1;fillColor=#3F7F3F;fontColor=#ffffff;strokeColor=#3700CC;" vertex="1" parent="1">
                    <mxGeometry x="650" y="180" width="60" height="40" as="geometry"/>
                </mxCell>
            </root>
        </mxGraphModel>
    </diagram>
    <diagram name="Class" id="91nQOXm_3-r8-yG7TShZ">
        <mxGraphModel dx="879" dy="626" grid="1" gridSize="10" guides="1" tooltips="1" connect="1" arrows="1" fold="1" page="1" pageScale="1" pageWidth="827" pageHeight="1169" math="0" shadow="0">
            <root>
                <mxCell id="iYtZaIBMdOC4uQxO0dUN-0"/>
                <mxCell id="iYtZaIBMdOC4uQxO0dUN-1" parent="iYtZaIBMdOC4uQxO0dUN-0"/>
                <mxCell id="iYtZaIBMdOC4uQxO0dUN-2" value="Interface" style="labelPosition=center;verticalLabelPosition=middle;align=left;verticalAlign=top;spacingTop=0;spacingLeft=0;spacingRight=0;spacing=5;" vertex="1" parent="iYtZaIBMdOC4uQxO0dUN-1">
                    <mxGeometry x="160" y="120" width="240" height="160" as="geometry"/>
                </mxCell>
                <mxCell id="iYtZaIBMdOC4uQxO0dUN-3" value="Data" style="labelPosition=center;verticalLabelPosition=middle;align=left;verticalAlign=top;spacingTop=0;spacingLeft=0;spacingRight=0;spacing=5;" vertex="1" parent="iYtZaIBMdOC4uQxO0dUN-1">
                    <mxGeometry x="480" y="120" width="240" height="160" as="geometry"/>
                </mxCell>
                <mxCell id="iYtZaIBMdOC4uQxO0dUN-4" value="Function" style="labelPosition=center;verticalLabelPosition=middle;align=left;verticalAlign=top;spacingTop=0;spacingLeft=0;spacingRight=0;spacing=5;" vertex="1" parent="iYtZaIBMdOC4uQxO0dUN-1">
                    <mxGeometry x="480" y="320" width="240" height="160" as="geometry"/>
                </mxCell>
                <mxCell id="iYtZaIBMdOC4uQxO0dUN-5" value="Presentation" style="labelPosition=center;verticalLabelPosition=middle;align=left;verticalAlign=top;spacingTop=0;spacingLeft=0;spacingRight=0;spacing=5;" vertex="1" parent="iYtZaIBMdOC4uQxO0dUN-1">
                    <mxGeometry x="160" y="320" width="240" height="160" as="geometry"/>
                </mxCell>
                <mxCell id="iYtZaIBMdOC4uQxO0dUN-6" style="edgeStyle=none;html=1;exitX=0;exitY=0;exitDx=0;exitDy=0;entryX=0;entryY=0;entryDx=0;entryDy=0;" edge="1" parent="iYtZaIBMdOC4uQxO0dUN-1" source="iYtZaIBMdOC4uQxO0dUN-11" target="iYtZaIBMdOC4uQxO0dUN-29">
                    <mxGeometry relative="1" as="geometry">
                        <mxPoint x="440" y="330" as="targetPoint"/>
                        <mxPoint x="340" y="220" as="sourcePoint"/>
                    </mxGeometry>
                </mxCell>
                <mxCell id="iYtZaIBMdOC4uQxO0dUN-7" style="edgeStyle=none;html=1;exitX=0;exitY=0;exitDx=0;exitDy=0;entryX=0;entryY=0;entryDx=0;entryDy=0;" edge="1" parent="iYtZaIBMdOC4uQxO0dUN-1" source="iYtZaIBMdOC4uQxO0dUN-27" target="iYtZaIBMdOC4uQxO0dUN-26">
                    <mxGeometry relative="1" as="geometry">
                        <mxPoint x="430" y="120" as="targetPoint"/>
                        <mxPoint x="520" y="390" as="sourcePoint"/>
                    </mxGeometry>
                </mxCell>
                <mxCell id="iYtZaIBMdOC4uQxO0dUN-8" style="edgeStyle=none;html=1;exitX=0.5;exitY=1;exitDx=0;exitDy=0;" edge="1" parent="iYtZaIBMdOC4uQxO0dUN-1" source="iYtZaIBMdOC4uQxO0dUN-23" target="iYtZaIBMdOC4uQxO0dUN-11">
                    <mxGeometry relative="1" as="geometry">
                        <mxPoint x="600" y="859" as="targetPoint"/>
                        <mxPoint x="611" y="730" as="sourcePoint"/>
                    </mxGeometry>
                </mxCell>
                <mxCell id="iYtZaIBMdOC4uQxO0dUN-9" style="edgeStyle=none;html=1;entryX=0;entryY=0;entryDx=0;entryDy=0;exitX=0;exitY=0;exitDx=0;exitDy=0;" edge="1" parent="iYtZaIBMdOC4uQxO0dUN-1" source="iYtZaIBMdOC4uQxO0dUN-24" target="iYtZaIBMdOC4uQxO0dUN-11">
                    <mxGeometry relative="1" as="geometry">
                        <mxPoint x="530" y="647" as="targetPoint"/>
                        <mxPoint x="592" y="738.9999999999999" as="sourcePoint"/>
                    </mxGeometry>
                </mxCell>
                <mxCell id="iYtZaIBMdOC4uQxO0dUN-10" value="メモリ解放" style="rounded=0;whiteSpace=wrap;html=1;fillColor=none;strokeColor=none;fontSize=10;fontColor=#FF0000;" vertex="1" parent="iYtZaIBMdOC4uQxO0dUN-1">
                    <mxGeometry x="3" y="667" width="60" height="22" as="geometry"/>
                </mxCell>
                <mxCell id="iYtZaIBMdOC4uQxO0dUN-11" value="Terminal" style="rounded=0;whiteSpace=wrap;html=1;fillColor=#3F7F3F;fontColor=#ffffff;strokeColor=#3700CC;" vertex="1" parent="iYtZaIBMdOC4uQxO0dUN-1">
                    <mxGeometry x="200" y="180" width="60" height="40" as="geometry"/>
                </mxCell>
                <mxCell id="iYtZaIBMdOC4uQxO0dUN-12" style="edgeStyle=none;html=1;exitX=0;exitY=0;exitDx=0;exitDy=0;entryX=0;entryY=0;entryDx=0;entryDy=0;" edge="1" parent="iYtZaIBMdOC4uQxO0dUN-1" source="iYtZaIBMdOC4uQxO0dUN-38" target="iYtZaIBMdOC4uQxO0dUN-44">
                    <mxGeometry relative="1" as="geometry"/>
                </mxCell>
                <mxCell id="iYtZaIBMdOC4uQxO0dUN-13" style="edgeStyle=none;html=1;exitX=0;exitY=0;exitDx=0;exitDy=0;entryX=0;entryY=0;entryDx=0;entryDy=0;" edge="1" parent="iYtZaIBMdOC4uQxO0dUN-1" source="iYtZaIBMdOC4uQxO0dUN-26" target="iYtZaIBMdOC4uQxO0dUN-25">
                    <mxGeometry relative="1" as="geometry">
                        <mxPoint x="440" y="130" as="targetPoint"/>
                        <mxPoint x="340" y="210" as="sourcePoint"/>
                    </mxGeometry>
                </mxCell>
                <mxCell id="iYtZaIBMdOC4uQxO0dUN-14" style="edgeStyle=none;html=1;exitX=0;exitY=0;exitDx=0;exitDy=0;entryX=0;entryY=0;entryDx=0;entryDy=0;" edge="1" parent="iYtZaIBMdOC4uQxO0dUN-1" source="iYtZaIBMdOC4uQxO0dUN-36" target="iYtZaIBMdOC4uQxO0dUN-42">
                    <mxGeometry relative="1" as="geometry">
                        <mxPoint x="500" y="410" as="sourcePoint"/>
                        <mxPoint x="610" y="210" as="targetPoint"/>
                    </mxGeometry>
                </mxCell>
                <mxCell id="iYtZaIBMdOC4uQxO0dUN-15" style="edgeStyle=none;html=1;exitX=0;exitY=0;exitDx=0;exitDy=0;entryX=0;entryY=0;entryDx=0;entryDy=0;" edge="1" parent="iYtZaIBMdOC4uQxO0dUN-1" source="iYtZaIBMdOC4uQxO0dUN-36" target="iYtZaIBMdOC4uQxO0dUN-43">
                    <mxGeometry relative="1" as="geometry">
                        <mxPoint x="500" y="410" as="sourcePoint"/>
                        <mxPoint x="610" y="210" as="targetPoint"/>
                    </mxGeometry>
                </mxCell>
                <mxCell id="iYtZaIBMdOC4uQxO0dUN-16" style="edgeStyle=none;html=1;exitX=0;exitY=0;exitDx=0;exitDy=0;entryX=0;entryY=0;entryDx=0;entryDy=0;" edge="1" parent="iYtZaIBMdOC4uQxO0dUN-1" source="iYtZaIBMdOC4uQxO0dUN-36" target="iYtZaIBMdOC4uQxO0dUN-44">
                    <mxGeometry relative="1" as="geometry">
                        <mxPoint x="500" y="410" as="sourcePoint"/>
                        <mxPoint x="610" y="210" as="targetPoint"/>
                    </mxGeometry>
                </mxCell>
                <mxCell id="iYtZaIBMdOC4uQxO0dUN-17" style="edgeStyle=none;html=1;exitX=0;exitY=0;exitDx=0;exitDy=0;entryX=0;entryY=0;entryDx=0;entryDy=0;" edge="1" parent="iYtZaIBMdOC4uQxO0dUN-1" source="iYtZaIBMdOC4uQxO0dUN-29" target="iYtZaIBMdOC4uQxO0dUN-40">
                    <mxGeometry relative="1" as="geometry">
                        <mxPoint x="270" y="430" as="targetPoint"/>
                        <mxPoint x="240" y="210" as="sourcePoint"/>
                    </mxGeometry>
                </mxCell>
                <mxCell id="iYtZaIBMdOC4uQxO0dUN-18" style="edgeStyle=none;html=1;exitX=0;exitY=0;exitDx=0;exitDy=0;" edge="1" parent="iYtZaIBMdOC4uQxO0dUN-1" source="iYtZaIBMdOC4uQxO0dUN-41" target="iYtZaIBMdOC4uQxO0dUN-28">
                    <mxGeometry relative="1" as="geometry">
                        <mxPoint x="460" y="390" as="targetPoint"/>
                        <mxPoint x="270" y="430" as="sourcePoint"/>
                    </mxGeometry>
                </mxCell>
                <mxCell id="iYtZaIBMdOC4uQxO0dUN-19" style="edgeStyle=none;html=1;exitX=0;exitY=0;exitDx=0;exitDy=0;entryX=0;entryY=0;entryDx=0;entryDy=0;" edge="1" parent="iYtZaIBMdOC4uQxO0dUN-1" source="iYtZaIBMdOC4uQxO0dUN-42" target="iYtZaIBMdOC4uQxO0dUN-30">
                    <mxGeometry relative="1" as="geometry">
                        <mxPoint x="670" y="30" as="targetPoint"/>
                        <mxPoint x="610" y="120" as="sourcePoint"/>
                    </mxGeometry>
                </mxCell>
                <mxCell id="iYtZaIBMdOC4uQxO0dUN-20" style="edgeStyle=none;html=1;exitX=0;exitY=0;exitDx=0;exitDy=0;entryX=0;entryY=0;entryDx=0;entryDy=0;" edge="1" parent="iYtZaIBMdOC4uQxO0dUN-1" source="iYtZaIBMdOC4uQxO0dUN-28" target="iYtZaIBMdOC4uQxO0dUN-27">
                    <mxGeometry relative="1" as="geometry">
                        <mxPoint x="340" y="260" as="targetPoint"/>
                        <mxPoint x="360" y="370" as="sourcePoint"/>
                    </mxGeometry>
                </mxCell>
                <mxCell id="iYtZaIBMdOC4uQxO0dUN-21" style="edgeStyle=none;html=1;exitX=0;exitY=0;exitDx=0;exitDy=0;entryX=0;entryY=0;entryDx=0;entryDy=0;" edge="1" parent="iYtZaIBMdOC4uQxO0dUN-1" source="iYtZaIBMdOC4uQxO0dUN-43" target="iYtZaIBMdOC4uQxO0dUN-30">
                    <mxGeometry relative="1" as="geometry">
                        <mxPoint x="560" y="70" as="targetPoint"/>
                        <mxPoint x="530" y="210" as="sourcePoint"/>
                    </mxGeometry>
                </mxCell>
                <mxCell id="iYtZaIBMdOC4uQxO0dUN-22" style="edgeStyle=none;html=1;exitX=0;exitY=0;exitDx=0;exitDy=0;entryX=0;entryY=0;entryDx=0;entryDy=0;" edge="1" parent="iYtZaIBMdOC4uQxO0dUN-1" source="iYtZaIBMdOC4uQxO0dUN-44" target="iYtZaIBMdOC4uQxO0dUN-30">
                    <mxGeometry relative="1" as="geometry">
                        <mxPoint x="620" y="60" as="targetPoint"/>
                        <mxPoint x="610" y="210" as="sourcePoint"/>
                    </mxGeometry>
                </mxCell>
                <mxCell id="iYtZaIBMdOC4uQxO0dUN-23" value="Display" style="rounded=0;whiteSpace=wrap;html=1;fillColor=#3F7F3F;fontColor=#ffffff;strokeColor=#3700CC;" vertex="1" parent="iYtZaIBMdOC4uQxO0dUN-1">
                    <mxGeometry x="240" y="40" width="60" height="40" as="geometry"/>
                </mxCell>
                <mxCell id="iYtZaIBMdOC4uQxO0dUN-24" value="Keyboard" style="rounded=0;whiteSpace=wrap;html=1;fillColor=#3F7F3F;fontColor=#ffffff;strokeColor=#3700CC;" vertex="1" parent="iYtZaIBMdOC4uQxO0dUN-1">
                    <mxGeometry x="160" y="40" width="60" height="40" as="geometry"/>
                </mxCell>
                <mxCell id="iYtZaIBMdOC4uQxO0dUN-25" value="Client" style="rounded=0;whiteSpace=wrap;html=1;fillColor=#3F7F3F;fontColor=#ffffff;strokeColor=#3700CC;" vertex="1" parent="iYtZaIBMdOC4uQxO0dUN-1">
                    <mxGeometry x="360" y="40" width="60" height="40" as="geometry"/>
                </mxCell>
                <mxCell id="iYtZaIBMdOC4uQxO0dUN-26" value="NW&lt;br&gt;adapter" style="rounded=0;whiteSpace=wrap;html=1;fillColor=#3F7F3F;fontColor=#ffffff;strokeColor=#3700CC;" vertex="1" parent="iYtZaIBMdOC4uQxO0dUN-1">
                    <mxGeometry x="300" y="130" width="60" height="40" as="geometry"/>
                </mxCell>
                <mxCell id="iYtZaIBMdOC4uQxO0dUN-27" value="TCP/IP&lt;br&gt;socket" style="rounded=0;whiteSpace=wrap;html=1;fillColor=#3F7F3F;fontColor=#ffffff;strokeColor=#3700CC;" vertex="1" parent="iYtZaIBMdOC4uQxO0dUN-1">
                    <mxGeometry x="300" y="180" width="60" height="40" as="geometry"/>
                </mxCell>
                <mxCell id="iYtZaIBMdOC4uQxO0dUN-28" value="Multiplex&lt;br&gt;I/O" style="rounded=0;whiteSpace=wrap;html=1;fillColor=#3F7F3F;fontColor=#ffffff;strokeColor=#3700CC;" vertex="1" parent="iYtZaIBMdOC4uQxO0dUN-1">
                    <mxGeometry x="300" y="230" width="60" height="40" as="geometry"/>
                </mxCell>
                <mxCell id="iYtZaIBMdOC4uQxO0dUN-29" value="Formatting" style="rounded=0;whiteSpace=wrap;html=1;fillColor=#3F7F3F;fontColor=#ffffff;strokeColor=#3700CC;" vertex="1" parent="iYtZaIBMdOC4uQxO0dUN-1">
                    <mxGeometry x="230" y="400" width="60" height="40" as="geometry"/>
                </mxCell>
                <mxCell id="iYtZaIBMdOC4uQxO0dUN-30" value="File" style="rounded=0;whiteSpace=wrap;html=1;fillColor=#3F7F3F;fontColor=#ffffff;strokeColor=#3700CC;" vertex="1" parent="iYtZaIBMdOC4uQxO0dUN-1">
                    <mxGeometry x="520" y="40" width="60" height="40" as="geometry"/>
                </mxCell>
                <mxCell id="iYtZaIBMdOC4uQxO0dUN-31" style="edgeStyle=none;html=1;entryX=0;entryY=0;entryDx=0;entryDy=0;exitX=0;exitY=0;exitDx=0;exitDy=0;" edge="1" parent="iYtZaIBMdOC4uQxO0dUN-1" source="iYtZaIBMdOC4uQxO0dUN-37" target="iYtZaIBMdOC4uQxO0dUN-42">
                    <mxGeometry relative="1" as="geometry">
                        <mxPoint x="540" y="440" as="targetPoint"/>
                        <mxPoint x="440" y="280" as="sourcePoint"/>
                    </mxGeometry>
                </mxCell>
                <mxCell id="iYtZaIBMdOC4uQxO0dUN-32" style="edgeStyle=none;html=1;exitX=0;exitY=0;exitDx=0;exitDy=0;entryX=0;entryY=0;entryDx=0;entryDy=0;" edge="1" parent="iYtZaIBMdOC4uQxO0dUN-1" source="iYtZaIBMdOC4uQxO0dUN-39" target="iYtZaIBMdOC4uQxO0dUN-36">
                    <mxGeometry relative="1" as="geometry">
                        <mxPoint x="540" y="440" as="targetPoint"/>
                        <mxPoint x="360" y="370" as="sourcePoint"/>
                    </mxGeometry>
                </mxCell>
                <mxCell id="iYtZaIBMdOC4uQxO0dUN-33" style="edgeStyle=none;html=1;exitX=0;exitY=0;exitDx=0;exitDy=0;" edge="1" parent="iYtZaIBMdOC4uQxO0dUN-1" source="iYtZaIBMdOC4uQxO0dUN-40">
                    <mxGeometry relative="1" as="geometry">
                        <mxPoint x="530" y="430" as="targetPoint"/>
                        <mxPoint x="360" y="370" as="sourcePoint"/>
                    </mxGeometry>
                </mxCell>
                <mxCell id="iYtZaIBMdOC4uQxO0dUN-34" style="edgeStyle=none;html=1;exitX=0;exitY=0;exitDx=0;exitDy=0;entryX=0;entryY=0;entryDx=0;entryDy=0;" edge="1" parent="iYtZaIBMdOC4uQxO0dUN-1" source="iYtZaIBMdOC4uQxO0dUN-39" target="iYtZaIBMdOC4uQxO0dUN-37">
                    <mxGeometry relative="1" as="geometry">
                        <mxPoint x="450" y="350" as="targetPoint"/>
                        <mxPoint x="540" y="380" as="sourcePoint"/>
                    </mxGeometry>
                </mxCell>
                <mxCell id="iYtZaIBMdOC4uQxO0dUN-35" style="edgeStyle=none;html=1;exitX=0;exitY=0;exitDx=0;exitDy=0;entryX=0;entryY=0;entryDx=0;entryDy=0;" edge="1" parent="iYtZaIBMdOC4uQxO0dUN-1" source="iYtZaIBMdOC4uQxO0dUN-39" target="iYtZaIBMdOC4uQxO0dUN-41">
                    <mxGeometry relative="1" as="geometry">
                        <mxPoint x="540" y="440" as="targetPoint"/>
                        <mxPoint x="360" y="430" as="sourcePoint"/>
                    </mxGeometry>
                </mxCell>
                <mxCell id="iYtZaIBMdOC4uQxO0dUN-36" value="CRUD" style="rounded=0;whiteSpace=wrap;html=1;fillColor=#3F7F3F;fontColor=#ffffff;strokeColor=#3700CC;" vertex="1" parent="iYtZaIBMdOC4uQxO0dUN-1">
                    <mxGeometry x="590" y="350" width="60" height="40" as="geometry"/>
                </mxCell>
                <mxCell id="iYtZaIBMdOC4uQxO0dUN-37" value="Compose" style="rounded=0;whiteSpace=wrap;html=1;fillColor=#3F7F3F;fontColor=#ffffff;strokeColor=#3700CC;" vertex="1" parent="iYtZaIBMdOC4uQxO0dUN-1">
                    <mxGeometry x="500" y="350" width="60" height="40" as="geometry"/>
                </mxCell>
                <mxCell id="iYtZaIBMdOC4uQxO0dUN-38" value="Auth" style="rounded=0;whiteSpace=wrap;html=1;fillColor=#3F7F3F;fontColor=#ffffff;strokeColor=#3700CC;" vertex="1" parent="iYtZaIBMdOC4uQxO0dUN-1">
                    <mxGeometry x="650" y="410" width="60" height="40" as="geometry"/>
                </mxCell>
                <mxCell id="iYtZaIBMdOC4uQxO0dUN-39" value="Command" style="rounded=0;whiteSpace=wrap;html=1;fillColor=#3F7F3F;fontColor=#ffffff;strokeColor=#3700CC;" vertex="1" parent="iYtZaIBMdOC4uQxO0dUN-1">
                    <mxGeometry x="500" y="410" width="60" height="40" as="geometry"/>
                </mxCell>
                <mxCell id="iYtZaIBMdOC4uQxO0dUN-40" value="Listing" style="rounded=0;whiteSpace=wrap;html=1;fillColor=#3F7F3F;fontColor=#ffffff;strokeColor=#3700CC;" vertex="1" parent="iYtZaIBMdOC4uQxO0dUN-1">
                    <mxGeometry x="320" y="400" width="60" height="40" as="geometry"/>
                </mxCell>
                <mxCell id="iYtZaIBMdOC4uQxO0dUN-41" value="Protocol" style="rounded=0;whiteSpace=wrap;html=1;fillColor=#3F7F3F;fontColor=#ffffff;strokeColor=#3700CC;" vertex="1" parent="iYtZaIBMdOC4uQxO0dUN-1">
                    <mxGeometry x="320" y="340" width="60" height="40" as="geometry"/>
                </mxCell>
                <mxCell id="iYtZaIBMdOC4uQxO0dUN-42" value="Message" style="rounded=0;whiteSpace=wrap;html=1;fillColor=#3F7F3F;fontColor=#ffffff;strokeColor=#3700CC;" vertex="1" parent="iYtZaIBMdOC4uQxO0dUN-1">
                    <mxGeometry x="490" y="180" width="60" height="40" as="geometry"/>
                </mxCell>
                <mxCell id="iYtZaIBMdOC4uQxO0dUN-43" value="Channel" style="rounded=0;whiteSpace=wrap;html=1;fillColor=#3F7F3F;fontColor=#ffffff;strokeColor=#3700CC;" vertex="1" parent="iYtZaIBMdOC4uQxO0dUN-1">
                    <mxGeometry x="570" y="180" width="60" height="40" as="geometry"/>
                </mxCell>
                <mxCell id="iYtZaIBMdOC4uQxO0dUN-44" value="User" style="rounded=0;whiteSpace=wrap;html=1;fillColor=#3F7F3F;fontColor=#ffffff;strokeColor=#3700CC;" vertex="1" parent="iYtZaIBMdOC4uQxO0dUN-1">
                    <mxGeometry x="650" y="180" width="60" height="40" as="geometry"/>
                </mxCell>
            </root>
        </mxGraphModel>
    </diagram>
</mxfile>